<svg xmlns="http://www.w3.org/2000/svg" xmlns:xlink="http://www.w3.org/1999/xlink" version="1.1" x="0px" y="0px" viewBox="0 0 100 100" enable-background="new 0 0 100 100" xml:space="preserve"><g><path d="M33.83,49.16c-0.02,1.32-0.05,2.64-0.06,3.96c0,0.84-0.53,1.62-1.04,2.37l-0.14,0.21c-0.03,0.05-0.08,0.07-0.13,0.09   c-0.01,0.01-0.02,0.01-0.04,0.01c-0.01,0-0.03,0.01-0.04,0.01c-0.04,0-0.07,0-0.1-0.02c-0.12-0.05-0.17-0.17-0.14-0.29   c1.57-6.25,1.01-12.48,0.3-18.31c-0.02-0.15-0.06-0.3-0.11-0.45c-0.02-0.05-0.05-0.1-0.07-0.15c-0.04-0.1-0.08-0.19-0.13-0.29   c-0.03-0.06-0.07-0.12-0.11-0.18c-0.05-0.09-0.1-0.18-0.16-0.27c-0.04-0.07-0.09-0.13-0.13-0.2c-0.04-0.05-0.07-0.11-0.11-0.16   c0.23,1.45,0.42,2.99,0.52,4.57c0.04,0.45,0.06,0.91,0.07,1.36c0.01,0.07,0.01,0.14,0.01,0.21c0.01,0.4,0.02,0.8,0.02,1.2v0.36   c-0.01,0.35-0.02,0.71-0.04,1.07c0,0.16-0.01,0.31-0.02,0.47c-0.02,0.33-0.04,0.66-0.07,0.99c-0.02,0.18-0.04,0.36-0.05,0.54   c-0.04,0.31-0.08,0.62-0.12,0.94c-0.03,0.2-0.06,0.39-0.09,0.59c-0.05,0.3-0.11,0.6-0.17,0.9c-0.04,0.21-0.08,0.42-0.12,0.63   c-0.07,0.29-0.14,0.58-0.22,0.88c-0.05,0.21-0.11,0.43-0.17,0.65c-0.08,0.29-0.18,0.58-0.27,0.86c-0.07,0.22-0.14,0.44-0.21,0.66   c-0.11,0.29-0.23,0.58-0.34,0.87c-0.09,0.21-0.17,0.43-0.26,0.64c-0.13,0.3-0.28,0.6-0.42,0.9c-0.1,0.2-0.19,0.4-0.29,0.6   c-0.17,0.33-0.36,0.66-0.55,0.99c-0.1,0.16-0.18,0.33-0.28,0.5c-0.3,0.49-0.62,0.98-0.97,1.47c-0.48,0.68-0.75,1.53-1.03,2.43   c-0.14,0.44-0.29,0.91-0.46,1.34c-0.14,0.34-0.27,0.65-0.41,0.94c-0.94,2.03-1.92,2.99-3.04,2.99c-0.81,0-1.65-0.51-2.57-1.55   c-0.16-0.18-0.32-0.37-0.48-0.58c-0.7-0.91-1.52-1.8-2.3-2.66c-2.4-2.63-4.88-5.34-5.18-9.45c-0.12-1.68-0.09-3.38-0.06-5.02   c0.01-0.74,0.03-1.48,0.03-2.2c0-0.13,0.1-0.24,0.22-0.25c0.13-0.02,0.25,0.07,0.27,0.2c0.22,1.06,0.38,2.14,0.54,3.2   c0.37,2.43,0.73,4.73,1.63,6.79c1.19,2.69,3.24,5.02,5.23,7.28l0.58,0.67c1.48,1.68,2.74,1.36,3.87-0.97   c0.36-0.73,0.73-1.46,1.09-2.18c2.72-5.41,5.52-10.99,5.41-17.64c-0.09-5.16-0.53-9.28-5.2-11.53c-0.68-0.33-1.31-0.77-1.92-1.2   c-0.28-0.2-0.55-0.39-0.84-0.58c-0.06-0.04-0.1-0.11-0.11-0.18c-0.01-0.07,0.02-0.15,0.07-0.2l1.23-1.29   c0.05-0.05,0.14-0.06,0.19-0.08c0.06,0,0.13,0.03,0.18,0.08l6.09,6.65c-0.02-0.05-0.04-0.1-0.05-0.16   c-0.28-0.9-0.56-1.84-1.09-2.49c-0.43-0.52-0.87-1.04-1.31-1.55c-1.33-1.54-2.71-3.04-4.06-4.5c-0.04-0.04-0.08-0.08-0.12-0.13   c-0.45-0.48-0.89-0.96-1.33-1.44l0.59,2.16c0.02,0.04,0.04,0.09,0.04,0.14c0,0.02-0.03,0.04-0.03,0.06   c-0.01,0.03-0.02,0.05-0.03,0.07c-0.02,0.02-0.03,0.04-0.05,0.05c-0.01,0.01-0.01,0.03-0.02,0.03c-0.03,0.02-0.06,0.02-0.09,0.02   c-0.02,0.01-0.03,0.02-0.04,0.02h-0.01c-0.06-0.01-0.12-0.02-0.16-0.06c-1.36-1.19-2.41-1.99-3.1-1.99c-0.73,0-1.25,0.88-2.06,3.48   c-0.34,1.11-0.55,2.29-0.75,3.43c-0.1,0.54-0.19,1.08-0.3,1.61c-0.02,0.07-0.06,0.13-0.12,0.16c-0.04,0.03-0.08,0.04-0.13,0.04   c-0.02,0-0.04-0.01-0.07-0.01l-0.88-0.26c-0.07-0.02-0.12-0.06-0.15-0.12c-0.04-0.06-0.04-0.13-0.02-0.19   c0.26-0.86,0.51-1.71,0.76-2.57c0.57-1.96,1.17-3.98,1.87-5.92c0.39-1.09,1.05-1.62,2.04-1.62c0.47,0,0.96,0.11,1.43,0.23   c0.19,0.04,0.37,0.08,0.55,0.12l-1.6-7.47c-0.02-0.04-0.03-0.08-0.03-0.13c0-0.01,0-0.02,0-0.02c0-0.01,0-0.01,0-0.01s0,0,0-0.01   c-0.05-0.77-0.12-1.55-0.19-2.32c-0.12-1.3-0.25-2.64-0.26-3.97c-0.01-0.44,0-0.88,0.02-1.32c0.04-0.7,0.07-1.39,0.12-2.07h1.67   c-0.1,2.45-0.2,4.91-0.31,7.37c-0.02,0.29-0.06,0.57-0.13,0.85c-0.01,0.07-0.03,0.13-0.05,0.19c-0.06,0.22-0.11,0.43-0.17,0.64   c-0.01,0.02-0.02,0.04-0.02,0.07c-0.05,0.15-0.09,0.31-0.13,0.46c0.05,0.02,0.09,0.04,0.14,0.06c0.01,0,0.01,0.01,0.02,0.01   c0.26,0.1,0.52,0.19,0.65,0.35c0,0.01,0.01,0.01,0.01,0.01c0.05,0.06,0.07,0.12,0.08,0.2c0.58,4.74,3.31,7.87,6.2,11.2   c0.47,0.54,0.94,1.08,1.41,1.64c2.24,2.66,3.78,5.89,4.12,8.65C34,40.56,33.91,44.93,33.83,49.16z"/><path d="M3.99,21.21c-0.02,0.1-0.04,0.2-0.06,0.3V4.64h1.9C5.75,5.59,5.67,6.53,5.59,7.47C5.21,12,4.82,16.69,3.99,21.21z"/><path d="M8.13,95.33H6.47c0.1-2.14,0-4.31-0.31-6.37c-0.48-3.11-1.22-6.25-2.23-9.4v-6.25c0.68,1.85,1.33,3.59,1.93,5.2   C7.81,83.74,8.56,89.3,8.13,95.33z"/><path d="M54.07,91.56c0.22,1.25,0.44,2.51,0.65,3.77H53.1c-0.45-2.46-1-4.91-1.55-7.31c-0.51-2.24-1.04-4.55-1.47-6.83   c-0.12-0.63-0.26-1.27-0.41-1.9c-0.41-1.84-0.83-3.73-0.77-5.56c0.01-0.26,0.03-0.52,0.06-0.78c0.59-5.38,1.87-10.8,3.11-16.03   l0.05-0.2c0.03-0.12,0.15-0.21,0.29-0.19c0.13,0.03,0.22,0.15,0.2,0.28c-0.1,0.9-0.17,1.84-0.24,2.74   c-0.11,1.5-0.23,3.03-0.48,4.53c-0.09,0.5-0.18,0.99-0.3,1.48c-1.28,5.31-2.21,10.53,0.4,16.01c0.9,1.9,1.27,4.08,1.56,6.25   c0.04,0.31,0.08,0.62,0.12,0.93C53.79,89.68,53.91,90.64,54.07,91.56z"/><path d="M62.41,58.04c-0.01,0.85-0.04,1.69-0.08,2.53c-0.06,1.42-0.13,2.85-0.21,4.28c-0.24,4.27-0.56,8.56-0.86,12.74   c-0.22,2.98-0.43,5.95-0.63,8.93c-0.13,2.04-0.28,4.07-0.44,6.12c-0.07,0.89-0.14,1.79-0.2,2.69H56.5   c0.02-0.26,0.05-0.53,0.07-0.79c0.49-5.51,1-11.21,1.47-16.8l0.01-0.14c0.37-4.52,0.75-9.2,0.97-13.81l0.11-2.72   c0.24-5.79,0.5-11.78,0.44-17.65c-0.03-8.23-1.92-16.39-5.59-24.25c-0.73-1.56-1.43-3.13-2.14-4.7c-1.47-3.27-2.97-6.62-4.67-9.83   h2.75c3.24,5.83,6.53,11.85,9.21,18.04c0.18,0.41,0.35,0.83,0.51,1.25c2.36,6.26,2.42,13.21,2.48,19.94l0.02,1.39   c0.02,1.73,0.07,3.5,0.13,5.21C62.35,52.96,62.44,55.51,62.41,58.04z"/><path d="M85.79,12.88c-0.1,0.74-0.23,1.47-0.4,2.21c-1.14,5.16-3.64,10.2-5.96,14.61c-2.16,4.07-4.23,8.45-5.35,13.33   c-0.37,1.63-0.64,3.31-0.77,5.05c-0.25,3.29-0.6,6.63-0.95,9.85c-0.42,3.99-0.86,8.12-1.11,12.19c-0.16,2.83-0.34,5.67-0.53,8.51   c-0.35,5.51-0.71,11.09-0.93,16.7h-1.94c0.05-2.87,0.14-5.84,0.26-8.92c0.17-3.97,0.3-8.01,0.43-11.92   c0.36-10.51,0.72-21.38,1.66-32.03c0.42-5.06,2.89-10.38,7.53-16.25c5.55-7.01,7.6-14.1,6.23-21.57h2.2   C86.29,7.45,86.16,10.21,85.79,12.88z"/><path d="M95,93.92v1.41h-2.2c0.01-0.03,0.01-0.05,0.01-0.08c0.06-1.42-1.07-3.65-2.06-4.04c-1.36-0.54-2.65,0.66-3.1,2.78   c-0.09,0.45-0.19,0.89-0.29,1.34h-2.52c0.29-1.21,0.58-2.42,0.88-3.63c0.28-1.09,1.58-3.31,2.19-3.31c0.03,0,0.09,0.01,0.12,0.02   c0.27,0.09,0.59,0.13,0.99,0.13c0.32,0,0.64-0.03,0.96-0.05c0.34-0.03,0.68-0.06,1.01-0.06c1.17,0,2.47,0.3,3.27,2.55   C94.62,91.98,94.86,92.96,95,93.92z"/><path d="M5.9,33.21c-0.71,2.43-1.45,4.95-1.97,7.45V32.8c0.34-1.25,0.67-2.5,0.97-3.76l0.03-0.12c0.78-3.32,1.59-6.76,1.91-10.18   c0.43-4.38,0.8-8.97,1.13-14.1h2.36C9.79,10.69,9.1,16.67,8.41,22.45C7.98,26.1,6.92,29.72,5.9,33.21z"/><path d="M14.57,91.04c-0.12,1.43-0.26,2.86-0.42,4.29h-1.76c0.46-6.94-0.04-14.14-4.46-21.16c-1.59-2.52-2.92-5.04-4-7.55v-8.45   c0.82,3.55,2.15,6.97,4.01,10.23C11.73,75.07,15.36,82.32,14.57,91.04z"/><path d="M18.87,95.33c0.01-1.15,0.02-2.3,0.03-3.45c0.01-0.84-0.03-1.69-0.07-2.52c-0.04-0.64-0.07-1.29-0.08-1.94   c-0.07-7.02-2.27-13.57-6.73-20.04c-5.48-7.94-6.6-16.95-3.31-26.78c3.62-10.82,5.65-22.69,6.11-35.96h1.86   c-0.06,0.82-0.14,1.63-0.21,2.44c-0.28,3.09-0.56,6.28-0.46,9.39c0.15,4.19-0.9,8.05-1.91,11.78c-0.43,1.57-0.87,3.19-1.21,4.8   c-0.44,2.05-1,4.11-1.54,6.11c-0.75,2.77-1.52,5.64-2,8.5c-0.92,5.51,1.24,10.56,3.34,14.87c0.72,1.48,1.72,2.86,2.68,4.2   c0.41,0.57,0.83,1.15,1.22,1.73c2.31,3.42,2.89,7.29,3.5,11.38l0.06,0.44c0.76,5,1.03,10.03,1.05,15.05H18.87z"/><path d="M41.85,48.56c-0.72,2.82-1.72,5.61-2.68,8.3c-0.35,0.96-0.7,1.92-1.03,2.88c-0.46,1.35-0.91,2.73-1.34,4.07   c-1.01,3.15-2.05,6.41-3.45,9.44c-2.3,4.94-2.01,10.14-1.74,15.17c0.07,1.21,0.13,2.47,0.16,3.69c0.03,1.07,0.08,2.15,0.14,3.22   h-3.23c-0.09-1.33-0.16-2.65-0.22-3.95C28.35,89,28.23,86.53,28,84.13c-0.35-3.72,1.02-6.89,2.34-9.95c0.55-1.29,1.13-2.64,1.57-4   c0.61-1.92,1.28-3.86,1.93-5.74c1.69-4.94,3.44-10.04,4.48-15.21c1.76-8.72-2.47-16.32-6.21-23.03c-3.32-5.94-5.2-12.97-5.59-20.89   c-0.01-0.22-0.02-0.45-0.03-0.67h2.34c0.39,3.48,1.01,6.98,1.96,10.46c1.14,4.22,3.16,7.92,5.1,11.51   c0.83,1.52,1.68,3.09,2.46,4.68C41.19,37.14,43.41,42.48,41.85,48.56z"/><path d="M71.41,4.64c-0.8,1.94-1.32,3.61-1.62,5.21c-0.52,2.85-1.98,4.5-4,4.54h-0.23c-1.98,0-4.7-0.51-5.85-1.97   c-1.9-2.44-3.8-5.03-5.71-7.78h3.21c1.08,1.25,2.23,2.5,3.45,3.73c1.15,1.17,2.19,1.74,3.16,1.74c1.27,0,2.53-1.02,3.85-3.12   c0.49-0.78,0.93-1.56,1.31-2.35H71.41z"/><path d="M95,55.3c-0.02-0.09-0.05-0.17-0.08-0.26c-0.71-2.16-0.7-4.6-1.02-6.9c0.16-0.04,0.34-0.06,0.52-0.08   c-0.2-1.8-0.57-3.6-0.56-5.4c0.02-1.98-0.8-3.34-2.5-3.18c-1.24,0.14-3.1,1.14-3.44,2.2c-0.98,3.08-2.12,6.46-1.78,9.56   C86.76,57,88.4,62.62,89.62,68.3c0.56,2.58,0.97,5.22,1.74,7.72c0.64,2.12,2.23,2.34,3.5,0.62c0.05-0.06,0.09-0.12,0.14-0.19   c0.56-0.78,1.1-1.78,1.09-2.67C95.97,67.61,96.97,61.38,95,55.3z M93.73,72.89c-0.31,0.05-0.64,0.09-0.96,0.13l-0.1,0.01   c-0.01,0-0.02,0-0.02,0c-0.12,0-0.23-0.08-0.25-0.2c-0.56-2.78-1.43-5.55-2.27-8.23c-1.77-5.62-3.59-11.43-2.65-17.76   c0.19-1.31,0.72-2.57,1.22-3.8c0.23-0.55,0.47-1.12,0.67-1.68c0.04-0.13,0.17-0.2,0.3-0.16l1.14,0.3c0.1,0.03,0.17,0.11,0.18,0.22   l2.94,30.9C93.95,72.75,93.86,72.86,93.73,72.89z"/><path d="M95,16.5v7.98c-0.73,3.26-1.5,6.13-2.35,8.76c-0.19,0.57-0.88,0.89-1.55,1.19c-0.28,0.13-0.57,0.26-0.8,0.41   c-0.06,0.03-0.13,0.04-0.19,0.03c-0.07-0.02-0.13-0.06-0.16-0.12l-0.43-0.8c-0.06-0.11-0.03-0.25,0.07-0.32   c2.86-2.07,3.47-5.33,4.05-8.49c0.14-0.74,0.28-1.5,0.45-2.24c0.22-0.95,0.3-1.96,0.38-2.93c0.1-1.13,0.2-2.31,0.51-3.41   C94.99,16.54,94.99,16.52,95,16.5z"/><path d="M93.24,82.72c0.55-0.03,1.27-0.49,1.76-1.02v2.97c-0.21,0.11-0.42,0.2-0.62,0.25c-0.46,0.12-0.92,0.18-1.35,0.18   c-1.2,0-2.81-0.46-3.66-2.66c-4.45-11.54-9.05-23.47-7.51-36.56c0.28-2.38,1.18-4.7,2.06-6.95c0.4-1.02,0.81-2.08,1.15-3.13   c0.03-0.06,0.07-0.12,0.14-0.14c0.06-0.03,0.13-0.04,0.19-0.01l0.95,0.37c0.12,0.05,0.19,0.18,0.15,0.31   c-0.03,0.09-0.05,0.2-0.07,0.3c-0.06,0.24-0.12,0.49-0.25,0.71c-5.1,8.38-3.52,17.59-1.63,25.56c1.16,4.94,3.06,9.78,4.89,14.46   c0.48,1.24,0.96,2.47,1.44,3.71C91.16,81.82,92.45,82.72,93.24,82.72z"/><path d="M79.84,95.33h-1.48c0.51-2.23,1.03-4.47,1.54-6.7c1-4.43,0.06-8.6-1-12.48c-0.84-3.15-1.37-6.45-1.88-9.64   c-0.23-1.4-0.46-2.86-0.72-4.28c-0.01-0.07,0-0.14,0.04-0.2c0.04-0.05,0.1-0.09,0.17-0.1l0.48-0.06c0.14-0.02,0.25,0.07,0.28,0.19   c0.46,1.97,1.02,3.97,1.57,5.91c1.23,4.38,2.52,8.91,2.65,13.42C81.65,86.01,80.86,90.7,79.84,95.33z"/><path d="M52.061,50.301c0.01,1.071,0.02,2.057,0.02,2.925c0,0.135,0.107,0.246,0.242,0.25c0.003,0,0.005,0,0.008,0   c0.131,0,0.241-0.102,0.249-0.234c0.067-1.032,0.155-2.179,0.248-3.409c0.252-3.319,0.538-7.081,0.625-10.919   c0.082-3.556-0.198-6.787-0.832-9.604c-0.298-1.322-1.022-2.529-1.723-3.697c-0.479-0.799-0.976-1.626-1.327-2.479   c-1.638-3.965-3.226-8.033-4.761-11.967c-0.626-1.604-1.252-3.207-1.883-4.809c-0.025-0.065-0.077-0.116-0.143-0.142l-0.401-0.155   c-0.088-0.034-0.188-0.015-0.256,0.047c-0.07,0.062-0.1,0.159-0.076,0.25c0.313,1.201,0.619,2.404,0.925,3.607   c0.688,2.708,1.4,5.51,2.188,8.238c0.424,1.47,0.934,2.941,1.427,4.363c0.828,2.392,1.686,4.866,2.144,7.37   c0.49,2.676,0.539,5.501,0.587,8.232c0.021,1.206,0.043,2.453,0.102,3.673c0.004,0.067,0.034,0.13,0.085,0.175   s0.109,0.071,0.185,0.062l0.209-0.016c0.13-0.01,0.23-0.119,0.23-0.249V28.362c2.074,3.984,2.123,8.333,1.983,12.468   C52.002,44.175,52.035,47.571,52.061,50.301z"/><path d="M66.77,65.17c-0.06,4.2-0.16,8.41-0.25,12.62c-0.13,5.76-0.27,11.65-0.33,17.54h-1.36c0.29-10.48,0.89-20.72,1.44-30.18   c0.01-0.14,0.12-0.24,0.25-0.24c0.01,0,0.01,0,0.01,0C66.67,64.92,66.78,65.03,66.77,65.17z"/><path d="M23.005,37.839c-0.285-0.624-1.453-0.929-2.199-0.886c-0.324,0.014-0.772,1.234-0.889,1.975   c-0.331,2.047-0.577,4.124-0.766,6.2c-0.091,1.147-0.292,2.512,0.11,3.427c0.551,1.263,1.486,2.585,2.524,3.136   c1.22,0.639,2.232-0.566,2.647-2.018c0.389-1.365,0.61-2.802,0.915-4.211c0.11-0.116,0.214-0.232,0.331-0.334   C24.808,42.689,24.056,40.162,23.005,37.839z"/><path d="M24.16,34.62c-0.56-1.12-2.94-1.48-4.52-1.58c-0.52,0-1.4,1.84-1.64,2.96c-0.52,2.46-0.88,5-1.06,7.52   c-0.26,3.34-1.3,6.72,0.77,9.94c1.95,3.06,5.79,3.58,7.71,0.52c1.36-2.2,1.9-4.98,3.02-8.08C27.09,42.12,25.97,38.18,24.16,34.62z    M27.3,45.89l-0.11,0.1c-0.14,0.59-0.26,1.17-0.39,1.76c-0.29,1.32-0.58,2.69-1,3.99c-0.62,1.94-1.91,3.19-3.29,3.19   c-0.37,0-0.76-0.09-1.13-0.26c-1.76-0.84-3.23-2.84-4.02-4.44c-0.56-1.14-0.4-2.74-0.25-4.15c0.02-0.24,0.05-0.47,0.07-0.7   c0.3-3.08,0.68-5.88,1.18-8.56c0.15-0.85,0.82-2.9,1.6-2.93c1.01-0.04,3.08,0.29,3.63,1.36c1.16,2.3,2.1,4.78,3.01,7.17   c0.37,0.97,0.74,1.93,1.12,2.89c0.04,0.1,0.01,0.22-0.08,0.29C27.52,45.69,27.42,45.79,27.3,45.89z"/><path d="M42.63,88.3c-0.16,0.93-0.36,1.86-0.55,2.77c-0.29,1.4-0.59,2.83-0.76,4.26h-1.23c0.38-2.47,1.07-4.86,2.07-7.17   c0.05-0.11,0.17-0.17,0.3-0.14C42.58,88.06,42.65,88.18,42.63,88.3z"/><path d="M40.298,22.798c-0.115,0.063-0.162,0.204-0.107,0.323c5.467,11.923,6.302,24.531,2.483,37.473   c-0.036,0.123,0.027,0.254,0.146,0.302c0.03,0.013,0.062,0.019,0.094,0.019c0.09,0,0.177-0.049,0.221-0.133   c4.812-9.117,3.524-28.599-2.507-37.901C40.556,22.771,40.412,22.735,40.298,22.798z"/><path d="M82.891,32.808c0.024-0.1-0.015-0.204-0.099-0.264c-0.083-0.06-0.194-0.06-0.281-0.005   c-1.364,0.892-2.999,6.483-4.015,11.63c-1.32,6.695-1.737,12.853-1.113,16.472c0.021,0.12,0.125,0.208,0.246,0.208   c0.002,0,0.004,0,0.007,0c0.124-0.003,0.227-0.097,0.241-0.22c0.175-1.462,0.328-2.928,0.481-4.395   c0.344-3.284,0.698-6.68,1.298-9.963c0.619-3.393,1.51-6.797,2.295-9.801C82.286,35.195,82.606,33.969,82.891,32.808z"/><path d="M35.8,8.62c0,0.03-0.02,0.05-0.03,0.07c-0.01,0.01-0.01,0.02-0.02,0.03c-0.02,0.05-0.05,0.08-0.09,0.1   c-0.01,0.01-0.01,0.02-0.02,0.03c-0.03,0.01-0.05,0.01-0.08,0.01l-0.01,0.01c-0.01,0-0.01,0-0.02,0c-0.09,0-0.18-0.05-0.22-0.14   c-0.64-1.35-1.17-2.72-1.61-4.09h0.68c0.02,0.04,0.03,0.08,0.04,0.12c0.08,0.28,0.16,0.56,0.25,0.84c0.07,0.22,0.15,0.44,0.23,0.66   c0.09,0.26,0.17,0.53,0.27,0.79c0.09,0.24,0.19,0.48,0.29,0.72c0.1,0.25,0.2,0.5,0.3,0.75v0.01C35.78,8.56,35.8,8.59,35.8,8.62z"/><path d="M66.248,32.086c-0.009-0.086-0.061-0.163-0.139-0.201l-0.144-0.07c-0.08-0.04-0.174-0.032-0.246,0.015   c-0.073,0.048-0.117,0.13-0.114,0.218l1.026,31.348c0.005,0.13,0.108,0.236,0.239,0.241c0.004,0,0.007,0,0.011,0   c0.126,0,0.232-0.094,0.248-0.22c0.63-5.157,0.822-10.368,0.573-15.487c-0.18-3.688-0.576-7.421-0.961-11.032   C66.571,35.295,66.4,33.691,66.248,32.086z"/><path d="M26.79,71.61c-1.98,7.85-1.85,15.87-1.41,23.72h-1.04c-0.01-0.06-0.01-0.12-0.01-0.18c-0.14-4.51-0.26-8.97-0.34-13.46   c-0.04-3.68,1.05-7.38,2.11-10.96c0.02-0.06,0.05-0.1,0.1-0.14c0.02-0.01,0.05-0.02,0.08-0.03c0.02,0,0.04-0.02,0.06-0.02   c0,0,0,0,0.01,0c0.1-0.02,0.17,0.05,0.22,0.14c0,0.01,0.01,0.02,0.01,0.03c0,0,0.01,0,0.01,0.01c0.01,0.03,0.02,0.07,0.04,0.1   c0.01,0.03,0.02,0.07,0.04,0.1c0.04,0.11,0.09,0.22,0.11,0.34C26.81,71.37,26.82,71.49,26.79,71.61z"/><path d="M39.53,5.34c0.03,0.13-0.05,0.26-0.18,0.29l-0.61,0.15h-0.06c-0.05,0-0.09-0.01-0.13-0.04c-0.06-0.03-0.1-0.09-0.11-0.16   l-0.18-0.94h1.14L39.53,5.34z"/><path d="M49.473,49.736l-0.554-0.095c-0.066-0.012-0.133,0.004-0.188,0.043c-0.054,0.039-0.09,0.097-0.102,0.163l-2.48,14.867   c-0.022,0.135,0.068,0.263,0.203,0.287l0.683,0.123c0.015,0.002,0.029,0.004,0.044,0.004c0.052,0,0.103-0.016,0.145-0.046   c0.055-0.039,0.092-0.098,0.103-0.165l2.352-14.895C49.7,49.887,49.608,49.76,49.473,49.736z"/><path d="M37.71,79.21c-0.13,0.46-0.28,0.93-0.43,1.4c-0.33,1-0.67,2.04-0.71,3.06c-0.13,3.87-0.21,7.79-0.28,11.66h-1.94   c0.02-1.71,0.07-3.31,0.15-4.84c0-0.01,0-0.01,0-0.02c0.03-0.65,0.07-1.29,0.12-1.93c0.11-1.68,0.42-3.37,0.77-5.02   c0.08-0.36,0.15-0.7,0.23-1.05c0.04-0.17,0.07-0.33,0.11-0.49c0.01-0.06,0.02-0.11,0.03-0.16c0.17-0.74,0.33-1.5,0.48-2.25   c0.05-0.23,0.1-0.46,0.14-0.69c0.01-0.07,0.05-0.13,0.11-0.17c0.06-0.04,0.14-0.05,0.2-0.03c0.14,0.04,0.28,0.07,0.42,0.11   c0.08,0.02,0.16,0.04,0.24,0.06l0.17,0.05c0,0,0,0,0.01,0c0.05,0.01,0.08,0.05,0.12,0.09c0,0.01,0.02,0.01,0.03,0.02   C37.71,79.07,37.73,79.14,37.71,79.21z"/></g></svg>