<svg xmlns="http://www.w3.org/2000/svg" xmlns:xlink="http://www.w3.org/1999/xlink" version="1.1" x="0px" y="0px" viewBox="0 0 100 100" enable-background="new 0 0 100 100" xml:space="preserve"><path d="M68.77,31.394c5.147-9.769,13.04-22.615,13.119-22.744c0.801-1.304,0.396-3.011-0.908-3.812  c-1.304-0.802-3.011-0.396-3.813,0.908c-0.055,0.09-3.849,6.263-7.915,13.342L65.68,9.494c-0.533-1.434-2.131-2.164-3.563-1.629  c-1.435,0.533-2.164,2.13-1.63,3.563L65.578,25.1c0.038,0.1,0.085,0.193,0.134,0.286c-0.639,1.165-1.259,2.314-1.845,3.426  c-3.684,6.991-4.962,11.571-5.371,14.261L41.768,58.389l-0.625-11.832c-0.082-1.529-1.396-2.705-2.915-2.62  c-1.529,0.08-2.702,1.386-2.621,2.913l0.867,16.387l-25.37,23.229c-0.558,0.512-0.883,1.227-0.899,1.982s0.277,1.486,0.812,2.021  l2.713,2.715c0.52,0.519,1.225,0.812,1.959,0.812c0.003,0,0.006,0,0.008,0c0.738-0.003,1.444-0.299,1.963-0.823l44.405-44.946  l15.545-5.604c1.439-0.52,2.186-2.106,1.667-3.547s-2.108-2.186-3.547-1.668l-10.787,3.889l-0.278-0.278  C65.33,38.781,66.542,35.625,68.77,31.394z"/></svg>