<svg xmlns="http://www.w3.org/2000/svg" data-name="Layer 3" viewBox="0 0 64 64" x="0px" y="0px"><g data-name="Layer 1"><path d="M57,22.3A23.663,23.663,0,0,0,53.09,9.673,21.374,21.374,0,0,0,35.5,0,20.768,20.768,0,0,0,22.937,4.291a22.32,22.32,0,0,0-6.2,7.342,1,1,0,1,0,1.768.934A20.046,20.046,0,0,1,25.92,4.678a13.007,13.007,0,0,0,12.1,8.3A12.984,12.984,0,0,0,48.648,7.437a20.642,20.642,0,0,1,5.181,8.242,12.954,12.954,0,0,0-8.774,11.287A44.844,44.844,0,0,1,35.5,28a43.663,43.663,0,0,1-18.786-4.156A1.236,1.236,0,0,1,16,22.72a22,22,0,0,1,1.023-6.638,1,1,0,0,0-1.906-.6A23.993,23.993,0,0,0,14,22.74a3.235,3.235,0,0,0,1.857,2.912,44.822,44.822,0,0,0,14.475,4.067l-.206,4.506A13.154,13.154,0,0,0,20.5,30a13.333,13.333,0,0,0-8.212,2.9,13.812,13.812,0,0,0-3.517,4.186,1,1,0,0,0,.4,1.356,1.013,1.013,0,0,0,1.355-.4,11.337,11.337,0,0,1,1.115-1.672,13.15,13.15,0,0,1,1.268-1.354A7,7,0,0,1,9.336,46.874l-.009-.035a12.406,12.406,0,0,1-.079-5.315,1,1,0,1,0-1.957-.409,14.447,14.447,0,0,0,.859,8.537,4.932,4.932,0,0,0,2.2,2.393,15.943,15.943,0,0,0,14.825.249l.421,5.513a3.9,3.9,0,1,1-7.737-.284c.1-.637.03-1.378-.763-1.51s-1.1.552-1.211,1.194a5.9,5.9,0,1,0,11.705.447l-.5-6.505a15.828,15.828,0,0,0,1.941-1.559l-.017.266C28.762,53.7,32.258,57,36,57a6.627,6.627,0,0,0,6.429-6.932l-.55-17.1a1,1,0,0,0-2,.064l.549,17.1A4.57,4.57,0,0,1,36,55a5.052,5.052,0,0,1-4.992-5.015l.193-2.97a16.17,16.17,0,0,0,2.118-4.38,5.126,5.126,0,0,0,.209-1.776,1,1,0,0,0-2,.122,3.114,3.114,0,0,1-.128,1.077A14,14,0,0,1,11.3,50.29a2.942,2.942,0,0,1-1.315-1.425c-.013-.031-.022-.058-.035-.088A9.04,9.04,0,0,0,17,40a8.945,8.945,0,0,0-2.508-6.22A10.988,10.988,0,0,1,20.5,32a11.329,11.329,0,0,1,9.661,5.508A1,1,0,0,0,32,37.044l.328-7.162c1.053.07,2.111.118,3.173.118a45.879,45.879,0,0,0,19.055-4.074A4.143,4.143,0,0,0,56.468,24.5,3.691,3.691,0,0,0,57,22.3ZM38.02,10.98A11,11,0,0,1,27.7,3.732q.841-.393,1.718-.7a18.46,18.46,0,0,1,9.31-.742A18.774,18.774,0,0,1,46.945,5.97c.016.013.19.149.188.151A10.987,10.987,0,0,1,38.02,10.98ZM54.28,23.847a41.7,41.7,0,0,1-6.689,2.5c-.159.045-.32.083-.48.125A10.954,10.954,0,0,1,54.387,17.6c.023.094.05.186.071.281A21.988,21.988,0,0,1,55,22.74,1.232,1.232,0,0,1,54.28,23.847Z"/><path d="M32,19a5,5,0,1,0-5,5A5.006,5.006,0,0,0,32,19Zm-8,0a3,3,0,1,1,3,3A3,3,0,0,1,24,19Z"/><path d="M20,41a4,4,0,1,0,4-4A4,4,0,0,0,20,41Zm6,0a2,2,0,1,1-2-2A2,2,0,0,1,26,41Z"/></g></svg>