<svg xmlns="http://www.w3.org/2000/svg" xmlns:xlink="http://www.w3.org/1999/xlink" version="1.1" x="0px" y="0px" viewBox="0 0 100 100" enable-background="new 0 0 100 100" xml:space="preserve"><path d="M43.9,17.2c4.2,4.7,4.7,6.7,7.7,10.1c3,3.4,5.7,4.5,8.7,7.5c3.1,3.1,5.1,5,8,7.9c5.7,5.7,7.5,13.5,7.5,13.5  s-5.8-10-11.5-14.3c-4.1-3.1-12.2-10.2-12.2-10.2s1.1,4.9,1.4,7.4c0.3,2.5,0.3,6,0.4,7.9c0,0.8,0.1,0.9,0.1,1.2  c0.1,0.3,0.1,0.5,0.6,1c1.4,1.9,4.7,6.2,6.3,9.5c2.7,5.3,4.1,10.7,4.6,14.5c0.8,7,0.4,12.2,0.4,12.2S64,72.1,61.3,64.8  c-2.7-7.3-8.8-13.4-8.8-13.4s-0.9,1.3-2.4,4.4c-1.1,2.1-2.8,5.3-3.8,7c-0.4,0.8-0.3,0.7-0.2,1.1c0,0.4-0.1,0.5,0.4,1  c1.8,1.7,5.9,5.7,7.5,9.2c1.7,3.7,1.9,6,2.3,10C56.8,88.4,56,95,56,95s-0.8-0.3-1.3-10.6c-0.5-11.1-10.5-18.2-10.5-18.2  s-2,3.3-3.2,6c-1.1,2.7-5,13.2-5,13.2s0.7-9.1,3.7-16c2.2-4.9,8.9-16.2,10.1-19.6c1.2-3.4-1.9-17.2-1.9-17.2s-1.1,4.8-6.3,10.3  c-3.2,3.4-7.4,7.3-10.3,9.6C26.5,56.4,24.1,68,24.1,68s-0.3-5.1,2.4-11.6c2.7-6.5,9.1-10.5,13.4-15.9c4.2-5.4,5.8-12.5,5.8-12.5  s-2.8-5.4-4.2-7.8C35.9,10.7,31.7,5,31.7,5S41.1,14.1,43.9,17.2z"/></svg>