<svg height='100px' width='100px'  fill="#000000" xmlns="http://www.w3.org/2000/svg" viewBox="0 0 100 100" x="0px" y="0px"><title>Shovel</title><g data-name="Iconos"><path d="M11,88.73a1.43,1.43,0,0,0,.66.67,30.46,30.46,0,0,0,9,2.61,25.35,25.35,0,0,0,3.32.22,18.75,18.75,0,0,0,13.65-5.4l9.3-9.3a5.85,5.85,0,0,0,0-8.25L42,64.34,66.64,39.66a1.47,1.47,0,0,0,1.53-.36l8.43-8.43a8.8,8.8,0,0,0,2.06.25,8.7,8.7,0,0,0,6.22-2.58L88,25.46h0L91.41,22a1.51,1.51,0,0,0,0-2.12L79.72,8.21a1.53,1.53,0,0,0-2.12,0l-6.53,6.52A8.75,8.75,0,0,0,68.74,23l-8.43,8.43A1.49,1.49,0,0,0,60,33L35.27,57.66,31.1,53.49a5.82,5.82,0,0,0-8.24,0l-9.3,9.3c-4.28,4.27-6.07,10.14-5.18,17A30.34,30.34,0,0,0,11,88.73ZM78.66,11.39,88.22,21,86.9,22.28l-9.57-9.57Zm-5.47,5.46,2-2,9.57,9.56-2,2a5.75,5.75,0,0,1-4.1,1.7A5.83,5.83,0,0,1,77,27.87a1.42,1.42,0,0,0-.73-.25,5.75,5.75,0,0,1-1.75-1.2l-1.37-1.36A5.76,5.76,0,0,1,72,23.3a1.52,1.52,0,0,0-.25-.73,5.62,5.62,0,0,1,1.44-5.72ZM70.05,26a9.12,9.12,0,0,0,1,1.23l1.36,1.36a8.5,8.5,0,0,0,1.24,1l-6.56,6.56L63.49,32.5ZM62,35.21l2.44,2.44L41,61.09a4.68,4.68,0,0,0-1.09-1.56,4.59,4.59,0,0,0-1.33-.9ZM38.37,63.07l0,.52-6.74,5.26,4.55-7.63.25,0a1.8,1.8,0,0,1,1.39.5A1.82,1.82,0,0,1,38.37,63.07ZM15.68,64.91l9.3-9.3a2.89,2.89,0,0,1,4,0L33.39,60,26.51,71.53a2,2,0,0,0,.37,2.63,2.06,2.06,0,0,0,1.39.54,2.1,2.1,0,0,0,1.27-.44l10.17-7.92,5.07,5.07a2.84,2.84,0,0,1,0,4l-9.3,9.3c-7.82,7.82-19.57,3.29-22,2.22C12.38,84.48,7.83,72.76,15.68,64.91Z"></path></g></svg>