<svg xmlns="http://www.w3.org/2000/svg" xmlns:xlink="http://www.w3.org/1999/xlink" version="1.1" x="0px" y="0px" viewBox="0 0 100 100" enable-background="new 0 0 100 100" xml:space="preserve"><g><path d="M93.339,74.057l-7.329-8.858c-0.456-0.547-0.706-1.245-0.706-1.961V22.81h-0.168c-0.774-7.214-22.365-9.16-35.229-9.16   c-13.099,0-35.266,2.013-35.266,9.558c0,0.319,0.053,0.624,0.13,0.923v39.096c0,0.719-0.255,1.419-0.715,1.972l-7.375,8.837   c-1.809,2.168-2.19,5.102-0.994,7.662c1.196,2.559,3.694,4.147,6.519,4.147h11.343l6.889-5.749   c0.942-0.786,2.159-0.944,3.275-0.427c1.111,0.52,1.773,1.561,1.773,2.787c0,1.867,1.518,3.388,3.385,3.388h17.491   c1.88,0,3.412-1.532,3.412-3.415c0-1.226,0.663-2.267,1.773-2.787c1.113-0.515,2.337-0.357,3.275,0.427l6.921,5.776h16.045   c2.817,0,5.312-1.583,6.511-4.134C95.504,79.162,95.134,76.23,93.339,74.057z M49.908,17.77c18.813,0,30.107,3.493,31.118,5.438   c-1.011,1.945-12.302,5.439-31.118,5.439c-18.329,0-29.512-3.315-31.015-5.139v-0.455C20.396,21.084,31.581,17.77,49.908,17.77z    M90.576,79.956c-0.523,1.108-1.564,1.768-2.785,1.768H73.239l-5.773-4.821c-2.168-1.811-5.108-2.189-7.662-0.993   c-2.342,1.097-3.874,3.284-4.115,5.813H39.574c-0.249-2.519-1.779-4.695-4.112-5.786c-2.554-1.194-5.494-0.821-7.662,0.993   l-5.741,4.794h-9.852c-1.226,0-2.267-0.663-2.787-1.773c-0.519-1.111-0.359-2.334,0.425-3.276l7.376-8.836   c1.077-1.293,1.671-2.932,1.671-4.611V28.181c7.079,3.512,21.456,4.587,31.015,4.587c9.678,0,24.296-1.102,31.277-4.719v35.19   c0,1.674,0.588,3.302,1.65,4.59l7.329,8.855C90.941,77.625,91.097,78.848,90.576,79.956z"/><path d="M29.437,36.18c-1.137,0-2.06,0.923-2.06,2.06v18.597c0,1.137,0.923,2.06,2.06,2.06s2.06-0.923,2.06-2.06V38.24   C31.497,37.103,30.574,36.18,29.437,36.18z"/><path d="M29.437,62.688c-1.137,0-2.06,0.923-2.06,2.06v2.519c0,1.137,0.923,2.06,2.06,2.06s2.06-0.923,2.06-2.06v-2.519   C31.497,63.611,30.574,62.688,29.437,62.688z"/><path d="M39.094,55.711c-1.137,0-2.06,0.923-2.06,2.06v8.566c0,1.137,0.923,2.06,2.06,2.06s2.06-0.923,2.06-2.06v-8.566   C41.154,56.633,40.232,55.711,39.094,55.711z"/><path d="M39.094,40.264c-1.137,0-2.06,0.923-2.06,2.06v7.538c0,1.137,0.923,2.06,2.06,2.06s2.06-0.923,2.06-2.06v-7.538   C41.154,41.187,40.232,40.264,39.094,40.264z"/><path d="M49.908,27.5c2.401,0,4.767-0.048,7.034-0.143c0.378-0.016,0.673-0.337,0.657-0.716c-0.016-0.369-0.319-0.657-0.687-0.657   c-0.008,0-0.019,0-0.03,0c-2.245,0.095-4.593,0.144-6.975,0.144c-14.776,0-23.73-1.752-24.272-2.874   c0.005-0.012,0.657-1.261,8.987-2.202c0.376-0.043,0.646-0.384,0.604-0.761c-0.04-0.376-0.357-0.651-0.759-0.605   C24.27,20.838,24.27,22.56,24.27,23.208C24.27,27.452,48.862,27.5,49.908,27.5z"/><path d="M40.537,20.554c2.978-0.174,6.13-0.263,9.37-0.263c14.773,0,23.73,1.752,24.272,2.873   c-0.172,0.382-2.329,1.545-10.156,2.328c-0.378,0.038-0.655,0.374-0.617,0.751c0.035,0.354,0.335,0.618,0.684,0.618   c0.021,0,0.046-0.001,0.067-0.004c11.388-1.137,11.388-2.963,11.388-3.65c0-4.243-24.591-4.291-25.638-4.291   c-3.267,0-6.446,0.09-9.451,0.266c-0.378,0.021-0.668,0.347-0.647,0.726S40.135,20.58,40.537,20.554z"/><path d="M40.637,22.213c-0.011-0.19-0.156-0.307-0.365-0.322c-6.323,0.393-6.323,0.95-6.323,1.317c0,1.466,12.214,1.58,15.959,1.58   c1.524,0,2.999-0.017,4.391-0.048c0.19-0.004,0.341-0.161,0.335-0.351c-0.005-0.186-0.158-0.335-0.343-0.335   c-0.003,0-0.005,0-0.008,0c-1.387,0.031-2.857,0.048-4.375,0.048c-8.206,0-13.547-0.477-14.977-0.889   c0.55-0.16,1.934-0.421,5.384-0.634C40.503,22.565,40.647,22.402,40.637,22.213z"/><path d="M65.867,23.208c0-1.466-12.214-1.58-15.959-1.58c-2.004,0-3.989,0.031-5.899,0.091c-0.19,0.007-0.338,0.165-0.333,0.354   c0.005,0.186,0.158,0.333,0.343,0.333c0.003,0,0.008,0,0.011,0c1.902-0.06,3.879-0.091,5.878-0.091   c8.214,0,13.558,0.479,14.98,0.891c-0.695,0.2-2.465,0.478-6.122,0.677c-0.19,0.011-0.335,0.173-0.325,0.362   c0.011,0.182,0.161,0.325,0.343,0.325c0.005,0,0.013,0,0.019,0C65.867,24.183,65.867,23.573,65.867,23.208z"/></g></svg>