<svg height='100px' width='100px'  fill="#000000" xmlns="http://www.w3.org/2000/svg" xmlns:xlink="http://www.w3.org/1999/xlink" version="1.1" x="0px" y="0px" viewBox="0 0 100 100" style="enable-background:new 0 0 100 100;" xml:space="preserve"><path d="M10.4541016,61.2138672c-0.375,0.2441406-0.5419922,0.7080078-0.4086914,1.1352539  c0.1333008,0.4277344,0.5366211,0.734375,0.980957,0.7021484c4.9204102-0.1230469,9.5332031,2.1083984,12.300293,5.9887695  c2.5776367,3.6137695,3.1728516,8.0463867,1.6333008,12.1611328c-0.1547852,0.4140625-0.0195312,0.8808594,0.3325195,1.1474609  c0.3525391,0.2666016,0.8374023,0.2700195,1.1948242,0.0102539c3.8569336-2.8237305,8.9077148-3.5996094,13.5117188-2.0786133  c4.4272461,1.4633789,7.7241211,4.7495117,9.0458984,9.015625C49.1743164,89.7143555,49.5615234,90,50,90  s0.8256836-0.2856445,0.9550781-0.7041016c1.3212891-4.2661133,4.6181641-7.5522461,9.0454102-9.015625  c4.6035156-1.5219727,9.6552734-0.7456055,13.512207,2.0786133c0.3569336,0.2602539,0.8422852,0.2573242,1.1948242-0.0102539  c0.3520508-0.2666016,0.4873047-0.7333984,0.3325195-1.1474609c-1.5395508-4.1147461-0.9443359-8.5473633,1.6333008-12.1611328  c2.7680664-3.8798828,7.3911133-6.097168,12.300293-5.9887695c0.465332,0.0322266,0.8481445-0.2744141,0.980957-0.7021484  c0.1333008-0.4272461-0.0336914-0.8911133-0.4086914-1.1352539C85.5898438,58.6362305,83.3212891,54.5488281,83.3212891,50  s2.2685547-8.6362305,6.2246094-11.2138672c0.375-0.2441406,0.5419922-0.7080078,0.4086914-1.1352539  c-0.1328125-0.4272461-0.515625-0.7207031-0.980957-0.7021484c-4.9414062,0.1137695-9.5332031-2.1088867-12.300293-5.9887695  c-2.5776367-3.6137695-3.1728516-8.0463867-1.6337891-12.1611328c0.1547852-0.4140625,0.0195312-0.8808594-0.3325195-1.1474609  c-0.3540039-0.2675781-0.8383789-0.2709961-1.1948242-0.0102539c-3.8569336,2.8237305-8.9067383,3.6010742-13.5117188,2.0786133  c-4.4267578-1.4633789-7.7241211-4.7495117-9.0454102-9.015625C50.8256836,10.2856445,50.4384766,10,50,10  s-0.8256836,0.2856445-0.9550781,0.7041016c-1.3217773,4.2661133-4.6186523,7.5522461-9.0458984,9.015625  c-4.6025391,1.5239258-9.6547852,0.7456055-13.5117188-2.0786133c-0.3564453-0.2597656-0.8413086-0.2563477-1.1948242,0.0102539  c-0.3520508,0.2666016-0.4873047,0.7333984-0.3325195,1.1474609c1.5395508,4.1147461,0.9443359,8.5473633-1.6333008,12.1611328  c-2.7675781,3.8803711-7.3833008,6.1166992-12.300293,5.9887695c-0.4443359-0.0185547-0.8476562,0.2749023-0.980957,0.7021484  s0.0336914,0.8911133,0.4086914,1.1352539C14.4101562,41.3637695,16.6787109,45.4511719,16.6787109,50  S14.4101562,58.6362305,10.4541016,61.2138672z M18.6787109,50c0-4.2592773-1.8154297-8.284668-4.9604492-11.1972656  c4.5302734-0.6040039,8.6049805-2.9916992,11.2368164-6.6816406c2.4462891-3.4301758,3.3422852-7.5029297,2.5888672-11.4863281  c3.9921875,2.0429688,8.7167969,2.4287109,13.0825195,0.9838867C44.8227539,20.2319336,48.1318359,17.3984375,50,13.6723633  c1.8676758,3.7260742,5.1762695,6.559082,9.3725586,7.9462891c4.3662109,1.4428711,9.0917969,1.059082,13.0834961-0.9838867  c-0.753418,3.9833984,0.1425781,8.0561523,2.5888672,11.4863281c2.6318359,3.6899414,6.7060547,6.0776367,11.2368164,6.6816406  C83.137207,41.715332,81.3212891,45.7412109,81.3212891,50c0,4.2592773,1.8154297,8.284668,4.9604492,11.1972656  c-4.5302734,0.6040039-8.6049805,2.9916992-11.2368164,6.6811523c-2.4462891,3.4301758-3.3422852,7.503418-2.5893555,11.4868164  c-3.9916992-2.043457-8.7163086-2.4282227-13.0825195-0.9838867C55.1767578,79.7685547,51.8676758,82.6015625,50,86.3276367  c-1.8681641-3.7260742-5.1772461-6.5595703-9.3735352-7.9462891c-1.7568359-0.5810547-3.5717773-0.8657227-5.3735352-0.8657227  c-2.6762695,0-5.3237305,0.628418-7.7089844,1.8496094c0.753418-3.9833984-0.1425781-8.0561523-2.5888672-11.4863281  c-2.6318359-3.6899414-6.7060547-6.0776367-11.2368164-6.6816406C16.862793,58.284668,18.6787109,54.2587891,18.6787109,50z"></path><path d="M50,73.6508789c13.0410156,0,23.6508789-10.6098633,23.6508789-23.6508789S63.0410156,26.3491211,50,26.3491211  S26.3491211,36.9589844,26.3491211,50S36.9589844,73.6508789,50,73.6508789z M50,28.3491211  c11.9384766,0,21.6508789,9.7124023,21.6508789,21.6508789S61.9384766,71.6508789,50,71.6508789  S28.3491211,61.9384766,28.3491211,50S38.0615234,28.3491211,50,28.3491211z"></path></svg>