<svg height='100px' width='100px'  fill="#000000" xmlns="http://www.w3.org/2000/svg" xmlns:xlink="http://www.w3.org/1999/xlink" version="1.1" x="0px" y="0px" viewBox="0 0 100 100" enable-background="new 0 0 100 100" xml:space="preserve"><path d="M77.356,19.455l1.225,9.327L59.651,51.627l0,0.001L57.53,36.174c0-2.126-6.994-3.849-15.623-3.849  c-7.848,0-14.342,1.425-15.453,3.283c-1.721-1.397-3.703-2.398-5.903-2.716c-2.231-0.284-5.106,0.269-6.948,0.929  c-5.385,2.003-6.64,6.422-6.118,12.064c0.513,4.111,0.896,5.066,1.805,7.496c0.232,0.389,2.572,6.96,12.076,18.997l-0.74,5.389  c0,1.534,9.539,2.778,21.306,2.778c11.767,0,21.306-1.244,21.306-2.778l-0.952-6.934l17.845-37.248c0,0,0-0.005,0.005-0.009  l1.196-2.497l11.29,0.171L77.356,19.455z M21.951,68.122C15.219,60.535,8.418,50.307,9.44,41.612  c0.332-2.969,1.986-4.963,4.809-6.042c5.127-1.877,9.064-0.785,11.788,2.781L21.951,68.122z M41.678,38.927  c-6.784,0-12.284-1.232-12.284-2.752c0-1.52,5.5-2.753,12.284-2.753c6.785,0,12.284,1.233,12.284,2.753  C53.962,37.694,48.462,38.927,41.678,38.927z"></path></svg>